<?xml version="1.0" standalone="no"?>
<!DOCTYPE svg PUBLIC "-//W3C//DTD SVG 20010904//EN"
 "http://www.w3.org/TR/2001/REC-SVG-20010904/DTD/svg10.dtd">
<svg version="1.0" xmlns="http://www.w3.org/2000/svg" viewBox="0 0 512.000000 512.000000"
 preserveAspectRatio="xMidYMid meet">
<metadata>
Created by potrace 1.16, written by Peter Selinger 2001-2019
</metadata>
<g transform="translate(0.000000,512.000000) scale(0.100000,-0.100000)"
fill="currentColor" stroke="none">
<path d="M243 5106 c-88 -28 -176 -107 -216 -194 l-22 -47 0 -1365 0 -1365 23
-49 c34 -75 84 -129 154 -166 57 -31 72 -35 165 -38 l101 -4 27 -77 c101 -281
274 -556 492 -782 345 -356 782 -580 1283 -656 158 -23 463 -23 620 0 325 50
650 173 904 342 l99 66 366 -364 c231 -230 381 -371 406 -383 57 -27 166 -26
220 3 49 26 206 185 231 233 26 49 25 162 0 215 -12 25 -153 175 -384 406
l-364 367 61 91 c175 260 297 581 348 911 23 157 24 462 0 620 -75 493 -283
908 -631 1256 -236 236 -517 417 -807 519 l-77 27 -4 101 c-3 93 -7 108 -38
165 -37 70 -91 120 -166 154 l-49 23 -1350 2 c-1091 1 -1358 -1 -1392 -11z
m2734 -177 c59 -28 93 -87 93 -158 0 -53 0 -53 -27 -46 -289 73 -685 68 -1008
-11 l-100 -24 -728 0 -728 0 -24 -25 c-27 -27 -33 -79 -12 -106 29 -38 43 -39
564 -39 l508 0 -35 -22 c-85 -51 -210 -135 -270 -180 l-65 -49 -332 -2 -331
-2 -26 -24 c-32 -30 -34 -78 -5 -115 l20 -26 246 0 245 0 -59 -67 c-33 -38
-81 -96 -107 -130 l-47 -63 -135 0 c-130 0 -136 -1 -159 -25 -34 -33 -34 -87
0 -120 21 -22 33 -25 103 -25 l79 0 -63 -127 c-77 -157 -124 -283 -163 -439
-79 -316 -90 -642 -30 -949 10 -55 19 -101 19 -102 0 -2 -23 -3 -52 -3 -70 0
-129 35 -157 93 -21 43 -21 44 -21 1355 0 902 3 1319 11 1339 14 37 57 82 94
99 25 11 268 13 1344 14 l1315 0 43 -21z m-117 -344 c589 -92 1087 -411 1413
-905 219 -332 331 -710 331 -1120 0 -329 -62 -602 -204 -895 -388 -803 -1263
-1263 -2145 -1129 -742 113 -1363 622 -1621 1331 -296 812 -40 1730 636 2283
280 229 674 399 1021 439 52 6 110 13 129 15 71 8 338 -3 440 -19z m2090
-4220 c0 -42 -153 -195 -195 -195 -25 0 -81 52 -385 356 l-357 355 111 113
111 112 358 -356 c306 -305 357 -360 357 -385z"/>
<path d="M2380 4429 c-759 -76 -1395 -598 -1616 -1327 -103 -342 -105 -732 -3
-1073 208 -702 810 -1222 1535 -1325 144 -20 399 -20 534 1 835 127 1475 776
1591 1615 17 122 14 385 -5 511 -44 285 -141 535 -301 774 -233 349 -570 606
-967 736 -138 45 -158 47 -193 16 -33 -28 -37 -89 -8 -118 10 -10 73 -36 140
-58 602 -197 1041 -703 1155 -1330 29 -162 29 -419 0 -583 -205 -1142 -1448
-1756 -2473 -1221 -58 31 -148 85 -200 122 -120 85 -315 279 -401 401 -77 108
-184 317 -223 435 -249 745 22 1541 673 1976 252 168 542 263 867 284 126 8
155 23 155 81 0 91 -44 104 -260 83z"/>
<path d="M1890 3834 c-250 -51 -434 -185 -533 -387 -56 -115 -71 -185 -71
-327 0 -114 2 -133 31 -213 17 -48 46 -113 64 -145 25 -42 203 -226 679 -702
699 -700 691 -693 855 -747 68 -22 98 -26 205 -27 143 -1 212 14 326 70 136
67 247 178 317 319 56 112 72 182 71 325 0 113 -3 133 -31 213 -17 48 -46 113
-64 145 -25 42 -203 226 -679 702 -700 700 -692 694 -855 746 -79 25 -252 40
-315 28z m278 -197 c38 -13 93 -40 123 -60 30 -20 329 -312 665 -649 462 -463
619 -627 643 -669 37 -68 71 -192 71 -263 -1 -296 -250 -545 -546 -546 -71 0
-195 34 -263 71 -42 24 -206 181 -669 643 -337 336 -629 635 -649 665 -142
212 -113 498 67 678 149 148 362 198 558 130z"/>
<path d="M1894 3489 c-61 -18 -127 -71 -156 -128 -27 -51 -28 -59 -28 -200 0
-132 2 -151 24 -197 61 -130 218 -183 347 -116 59 30 111 95 129 160 16 59 12
250 -6 313 -37 126 -183 205 -310 168z m131 -190 c17 -16 21 -36 23 -120 2
-55 1 -111 -2 -124 -16 -64 -96 -86 -141 -40 -24 23 -25 30 -25 142 1 77 5
123 13 134 33 43 94 47 132 8z"/>
<path d="M2333 2876 l-28 -24 0 -292 0 -292 28 -24 c37 -31 81 -31 112 1 24
23 25 30 25 150 0 69 3 125 8 125 4 0 47 -61 96 -136 50 -75 99 -142 110 -150
30 -21 71 -17 103 10 l28 24 0 292 0 292 -28 24 c-37 31 -81 31 -112 -1 -24
-23 -25 -30 -25 -150 0 -69 -3 -125 -7 -125 -5 0 -48 61 -97 136 -50 75 -99
142 -110 150 -30 21 -71 17 -103 -10z"/>
<path d="M2942 2293 c-7 -3 -19 -18 -27 -33 -12 -24 -15 -81 -15 -305 l0 -277
29 -29 29 -29 156 0 c146 0 156 1 180 23 40 34 43 77 11 115 l-27 32 -104 0
-104 0 0 45 0 45 60 0 c51 0 65 4 85 25 17 16 25 35 25 57 -1 59 -40 88 -119
88 l-51 0 0 40 0 40 93 0 c108 0 151 18 162 69 7 33 -15 85 -40 95 -20 7 -324
7 -343 -1z"/>
</g>
</svg>
